<svg width="14" height="14" viewBox="0 0 14 14" fill="none" xmlns="http://www.w3.org/2000/svg">
    <path d="M7 14C5.4375 12.3333 4.07031 10.3972 3.24219 9.09167C2.41406 7.78611 2 6.57778 2 5.46667C2 3.8 2.5026 2.47222 3.50781 1.48333C4.51302 0.494445 5.67708 0 7 0C8.32292 0 9.48698 0.494445 10.4922 1.48333C11.4974 2.47222 12 3.8 12 5.46667C12 6.57778 11.5859 7.78611 10.7578 9.09167C9.92969 10.3972 8.5625 12.3333 7 14Z" fill="black" />
    <path d="M9.55533 5.13956C9.55533 6.55083 8.41127 7.69489 7 7.69489C5.58873 7.69489 4.44467 6.55083 4.44467 5.13956C4.44467 3.72829 5.58873 2.58423 7 2.58423C8.41127 2.58423 9.55533 3.72829 9.55533 5.13956Z" fill="white" />
</svg>