<svg width="14" height="14" viewBox="0 0 14 14" fill="none" xmlns="http://www.w3.org/2000/svg">
<path d="M6.99999 0.275375C8.27359 0.275375 9.39445 0.750074 10.3672 1.70702C11.3333 2.65753 11.8213 3.93683 11.8213 5.55858C11.8212 6.6263 11.4234 7.79835 10.6123 9.07713C9.81212 10.3386 8.49995 12.1951 6.99999 13.8135C5.50004 12.1951 4.18787 10.3386 3.38769 9.07713C2.57662 7.79835 2.17877 6.6263 2.17871 5.55858C2.17871 3.93683 2.6667 2.65753 3.63281 1.70702C4.60554 0.750076 5.7264 0.275377 6.99999 0.275375Z" fill="url(#paint0_linear_1_3)" stroke="white" stroke-width="0.25"/>
<path d="M9.45946 5.06014C9.45946 6.41846 8.35832 7.5196 7 7.5196C5.64168 7.5196 4.54054 6.41846 4.54054 5.06014C4.54054 3.70182 5.64168 2.60069 7 2.60069C8.35832 2.60069 9.45946 3.70182 9.45946 5.06014Z" fill="white"/>
<defs>
<linearGradient id="paint0_linear_1_3" x1="2.55202" y1="1.59197" x2="7" y2="13.7232" gradientUnits="userSpaceOnUse">
<stop offset="0.271562" stop-color="#1F103C"/>
<stop offset="0.729899" stop-color="#150C28"/>
</linearGradient>
</defs>
</svg>
